<svg width="173" height="81" viewBox="0 0 173 81" fill="none" xmlns="http://www.w3.org/2000/svg">
<path d="M134.679 25.7508C134.693 27.5986 135.436 29.3663 136.747 30.6682C138.059 31.9702 139.832 32.7009 141.679 32.7008H159.189C161.933 32.7852 164.535 33.9343 166.446 35.9045C168.356 37.8747 169.425 40.5114 169.425 43.2558C169.425 46.0002 168.356 48.6368 166.446 50.6071C164.535 52.5773 161.933 53.7263 159.189 53.8108H112.189V56.6108H159.189C162.668 56.5156 165.972 55.0668 168.399 52.5726C170.826 50.0785 172.184 46.7358 172.184 43.2558C172.184 39.7758 170.826 36.4331 168.399 33.939C165.972 31.4448 162.668 29.996 159.189 29.9008H141.639C140.539 29.9008 139.483 29.4635 138.705 28.6853C137.927 27.907 137.489 26.8514 137.489 25.7508C137.489 24.6501 137.927 23.5946 138.705 22.8163C139.483 22.038 140.539 21.6008 141.639 21.6008H172.499V18.8008H141.639C139.799 18.8113 138.036 19.5466 136.733 20.8474C135.43 22.1482 134.693 23.9099 134.679 25.7508V25.7508Z" fill="white"/>
<path d="M141.639 12.3994C139.886 12.3994 138.15 12.7447 136.53 13.4156C134.911 14.0865 133.439 15.0698 132.199 16.3095C130.96 17.5492 129.976 19.0209 129.305 20.6406C128.635 22.2603 128.289 23.9962 128.289 25.7494C128.289 27.5025 128.635 29.2385 129.305 30.8582C129.976 32.4779 130.96 33.9496 132.199 35.1893C133.439 36.4289 134.911 37.4123 136.53 38.0832C138.15 38.7541 139.886 39.0994 141.639 39.0994H159.149C160.216 39.1517 161.222 39.6124 161.958 40.3858C162.695 41.1593 163.105 42.1864 163.105 43.2544C163.105 44.3224 162.695 45.3495 161.958 46.123C161.222 46.8964 160.216 47.357 159.149 47.4094H114.999V32.8194H124.999V29.9994H112.199V50.1694H159.199C160.907 49.9748 162.484 49.1582 163.629 47.8755C164.774 46.5929 165.407 44.9337 165.407 43.2144C165.407 41.4951 164.774 39.8359 163.629 38.5532C162.484 37.2705 160.907 36.454 159.199 36.2594H141.639C138.841 36.2594 136.158 35.1479 134.179 33.1694C132.201 31.1909 131.089 28.5074 131.089 25.7094C131.089 22.9113 132.201 20.2279 134.179 18.2494C136.158 16.2709 138.841 15.1594 141.639 15.1594H172.499V12.3594L141.639 12.3994Z" fill="white"/>
<path d="M38.519 12.4004H35.719V40.9104L7.20898 12.4004H0.708984V56.6104H3.509V15.2004H6.04898L38.519 47.6704V12.4004Z" fill="white"/>
<path d="M42.1194 53.8104H39.5794L7.10938 21.3504V56.6104H9.90939V28.1004L38.4194 56.6104H44.9194V12.4004H42.1194V53.8104Z" fill="white"/>
<path d="M65.9496 36.5993L80.2696 22.2793L78.5796 21.2193C76.4897 19.8387 74.0783 19.0223 71.5796 18.8493V18.8493H70.9396H70.0496C69.8797 18.8393 69.7095 18.8393 69.5396 18.8493C69.1296 18.8493 68.7096 18.9093 68.2996 18.9693L67.7496 19.0593H67.5696L67.1496 19.1393L66.5796 19.2793L66.0096 19.4393L65.5296 19.5893C64.8728 19.8137 64.2315 20.081 63.6096 20.3893C61.8364 21.2616 60.2475 22.4668 58.9296 23.9393C57.1742 25.8811 55.9326 28.2313 55.3178 30.7757C54.703 33.3201 54.7346 35.9779 55.4096 38.507C56.0847 41.0361 57.3817 43.3561 59.1827 45.2557C60.9836 47.1553 63.2313 48.5742 65.7208 49.383C68.2104 50.1918 70.8627 50.3649 73.4363 49.8866C76.0098 49.4082 78.4228 48.2935 80.4554 46.6441C82.488 44.9947 84.0756 42.8629 85.0737 40.443C86.0717 38.0231 86.4485 35.392 86.1696 32.7893L83.4496 35.5093C83.2361 38.0415 82.2813 40.4547 80.7042 42.4474C79.1272 44.4401 76.9979 45.9239 74.5824 46.7135C72.1669 47.503 69.5723 47.5632 67.1228 46.8866C64.6733 46.21 62.4774 44.8266 60.8096 42.9093C58.8935 40.6895 57.7903 37.8835 57.6814 34.9532C57.5725 32.0229 58.4644 29.1428 60.2104 26.7869C61.9564 24.431 64.4524 22.7397 67.2876 21.9913C70.1228 21.2429 73.1283 21.482 75.8096 22.6693L63.9196 34.5693L65.9496 36.5993Z" fill="white"/>
<path d="M89.3085 29.7191C90.4681 34.2533 89.9434 39.0541 87.8317 43.2306C85.7199 47.4072 82.1647 50.6758 77.8258 52.4298C73.4869 54.1838 68.6589 54.304 64.238 52.7682C59.8171 51.2324 56.1036 48.1449 53.7865 44.0786C51.4695 40.0124 50.7064 35.2436 51.6388 30.6574C52.5713 26.0712 55.1359 21.979 58.8568 19.1403C62.5777 16.3017 67.2021 14.9094 71.8717 15.2218C76.5413 15.5342 80.939 17.5301 84.2485 20.8391L84.7685 21.3791L85.5085 22.1191L68.5085 39.1191L70.5085 41.1191L89.5085 22.1191L86.2585 18.8691C82.4243 15.0346 77.3147 12.7428 71.9011 12.4295C66.4875 12.1163 61.1476 13.8033 56.8967 17.17C52.6457 20.5366 49.7802 25.3481 48.845 30.6894C47.9098 36.0308 48.9702 41.5296 51.8244 46.1403C54.6786 50.751 59.1277 54.152 64.3257 55.6966C69.5236 57.2413 75.108 56.8218 80.0169 54.5181C84.9258 52.2144 88.817 48.1869 90.9505 43.2017C93.084 38.2164 93.3111 32.6209 91.5886 27.4792L89.3085 29.7191Z" fill="white"/>
<path d="M105.8 23.6204H95.8496V26.4204H108.6V12.4004H105.8V23.6204Z" fill="white"/>
<path d="M124.949 23.6204H114.999V12.4004H112.199V26.4204H124.949V23.6204Z" fill="white"/>
<path d="M95.8496 32.8195H105.8V56.6095H108.6V30.0195H95.8496V32.8195Z" fill="white"/>
<path d="M85.8301 12.5392C87.0287 12.5492 88.2033 12.2028 89.2048 11.544C90.2062 10.8853 90.9895 9.94391 91.4551 8.83933C91.9207 7.73474 92.0476 6.51674 91.8199 5.33988C91.5921 4.16302 91.0199 3.08037 90.1758 2.22925C89.3317 1.37813 88.2538 0.796942 87.0789 0.55942C85.9039 0.321899 84.6849 0.43874 83.5765 0.895144C82.4681 1.35155 81.5203 2.12692 80.8533 3.1229C80.1863 4.11887 79.8301 5.29053 79.8301 6.48923C79.8352 8.08357 80.4675 9.61189 81.5901 10.7439C82.7128 11.876 84.2358 12.5209 85.8301 12.5392V12.5392ZM85.8301 3.23923C86.4729 3.23923 87.1012 3.42984 87.6357 3.78696C88.1701 4.14407 88.5867 4.65166 88.8327 5.24552C89.0787 5.83938 89.143 6.49286 89.0176 7.12329C88.8922 7.75373 88.5827 8.33281 88.1282 8.78733C87.6737 9.24185 87.0945 9.55139 86.4641 9.67679C85.8337 9.80219 85.1802 9.73784 84.5864 9.49185C83.9925 9.24587 83.4849 8.82929 83.1278 8.29483C82.7707 7.76037 82.5801 7.13202 82.5801 6.48923C82.5827 5.62809 82.926 4.80299 83.5349 4.19406C84.1438 3.58514 84.9689 3.24187 85.8301 3.23923Z" fill="white"/>
<path d="M19.4384 76.6909C18.5185 76.8581 17.5906 76.9782 16.6584 77.0508C15.7384 77.1308 14.8484 77.1609 13.9984 77.1609H13.1484V68.1609H14.9684V75.6409C15.5584 75.6409 16.2184 75.6409 16.9684 75.5309C17.7033 75.4702 18.4343 75.3701 19.1584 75.2309L19.4384 76.6909ZM17.7384 71.2108H20.0284V67.2108H21.7984V79.9209H20.0284V72.7209H17.7384V71.2108ZM22.6484 80.5609V66.8809H24.4284V80.5609H22.6484Z" fill="white"/>
<path d="M39.8086 78.7491V77.269H52.5186V78.7491H39.8086ZM41.3586 69.7491H51.0086V71.209H47.2686C47.3879 71.6495 47.5954 72.0612 47.8786 72.4191C48.1645 72.7707 48.5016 73.0774 48.8786 73.329C49.2749 73.5948 49.7012 73.813 50.1486 73.9791C50.6159 74.1544 51.0978 74.2883 51.5886 74.3791L50.9986 75.7791C49.9985 75.5958 49.0398 75.2333 48.1686 74.709C47.347 74.244 46.6584 73.5761 46.1686 72.769C45.6778 73.5753 44.9894 74.243 44.1686 74.709C43.2958 75.23 42.3377 75.5922 41.3386 75.7791L40.7486 74.3791C41.2394 74.2883 41.7212 74.1544 42.1886 73.9791C42.6355 73.8193 43.0593 73.6006 43.4486 73.329C43.8256 73.0774 44.1626 72.7707 44.4486 72.4191C44.7317 72.0612 44.9393 71.6495 45.0586 71.209H41.3086L41.3586 69.7491ZM43.7086 67.5391H48.6486V68.9991H43.7086V67.5391Z" fill="white"/>
<path d="M75.2001 74.5901V77.2701H80.5801V78.7502H67.9102V77.2701H73.3801V74.5901H69.6702V67.9102H78.9102V74.5901H75.2001ZM77.0901 69.4001H71.5001V73.1201H77.0901V69.4001Z" fill="white"/>
<path d="M102.78 67.4694V73.6294H96V67.5094H97.81V69.2394H100.97V67.4694H102.78ZM97.78 80.4694V76.8194H105.23V76.1394H97.78V74.6894H107.04V78.2794H99.58V79.0094H107.23V80.4694H97.78ZM100.99 72.1294V70.6694H97.83V72.1294H100.99ZM107.04 74.1294H105.23V66.8594H107.04V74.1294Z" fill="white"/>
<path d="M130.45 76.5609C129.305 76.8681 128.139 77.0854 126.96 77.2108C125.827 77.3263 124.689 77.3831 123.55 77.3809H122.65V71.8708H127.31V69.6808H122.58V68.1808H129.11V73.3708H124.43V75.8809C125.36 75.8718 126.288 75.805 127.21 75.6808C128.183 75.5483 129.148 75.3613 130.1 75.1208L130.45 76.5609ZM133.67 80.5609H131.86V66.8809H133.67V80.5609Z" fill="white"/>
<path d="M156.849 76.5909C155.706 76.9013 154.538 77.1121 153.359 77.2209C152.199 77.3309 151.069 77.3809 149.949 77.3809H149.049V68.1808H155.849V69.6808H150.849V71.7809H155.659V73.2809H150.879V75.8809C152.788 75.883 154.691 75.641 156.539 75.1609L156.849 76.5909ZM160.059 80.5208H158.249V66.8809H160.059V80.5208Z" fill="white"/>
</svg>
