<svg width="172" height="81" viewBox="0 0 172 81" fill="none" xmlns="http://www.w3.org/2000/svg">
<path d="M133.97 25.3299C133.97 27.1864 134.708 28.9669 136.021 30.2797C137.334 31.5924 139.114 32.3299 140.97 32.3299H158.48C161.224 32.4144 163.826 33.5634 165.737 35.5336C167.647 37.5039 168.716 40.1405 168.716 42.8849C168.716 45.6293 167.647 48.266 165.737 50.2362C163.826 52.2064 161.224 53.3555 158.48 53.4399H111.48V56.2399H158.48C161.959 56.1447 165.263 54.6959 167.69 52.2018C170.117 49.7076 171.475 46.3649 171.475 42.8849C171.475 39.4049 170.117 36.0623 167.69 33.5681C165.263 31.0739 161.959 29.6251 158.48 29.5299H140.93C140.368 29.5575 139.805 29.4705 139.277 29.2742C138.749 29.0778 138.266 28.7763 137.858 28.3877C137.45 27.9992 137.125 27.5318 136.903 27.0139C136.681 26.496 136.567 25.9384 136.567 25.3749C136.567 24.8115 136.681 24.2539 136.903 23.736C137.125 23.2181 137.45 22.7507 137.858 22.3621C138.266 21.9736 138.749 21.672 139.277 21.4756C139.805 21.2793 140.368 21.1923 140.93 21.2199H171.79V18.4199H140.93C139.096 18.4303 137.34 19.16 136.038 20.4523C134.736 21.7445 133.994 23.4959 133.97 25.3299V25.3299Z" fill="#1BB8CE"/>
<path d="M140.93 11.9712C139.146 11.9223 137.369 12.2316 135.706 12.8808C134.043 13.53 132.527 14.5059 131.248 15.7509C129.968 16.9958 128.951 18.4846 128.257 20.1292C127.563 21.7738 127.205 23.541 127.205 25.3262C127.205 27.1114 127.563 28.8785 128.257 30.5231C128.951 32.1677 129.968 33.6565 131.248 34.9015C132.527 36.1464 134.043 37.1223 135.706 37.7715C137.369 38.4207 139.146 38.73 140.93 38.6812H158.44C159.507 38.7335 160.513 39.1941 161.249 39.9676C161.986 40.7411 162.396 41.7682 162.396 42.8362C162.396 43.9042 161.986 44.9313 161.249 45.7047C160.513 46.4782 159.507 46.9388 158.44 46.9912H114.29V32.4012H124.29V29.6012H111.49V49.7712H158.49C160.198 49.5765 161.775 48.76 162.92 47.4773C164.065 46.1946 164.698 44.5355 164.698 42.8162C164.698 41.0969 164.065 39.4377 162.92 38.155C161.775 36.8723 160.198 36.0558 158.49 35.8612H140.93C139.517 35.9047 138.109 35.6639 136.79 35.153C135.472 34.6421 134.269 33.8717 133.254 32.8872C132.239 31.9028 131.432 30.7245 130.881 29.4222C130.329 28.12 130.045 26.7203 130.045 25.3062C130.045 23.8921 130.329 22.4924 130.881 21.1901C131.432 19.8878 132.239 18.7095 133.254 17.7251C134.269 16.7407 135.472 15.9702 136.79 15.4593C138.109 14.9485 139.517 14.7077 140.93 14.7512H171.79V11.9512L140.93 11.9712Z" fill="#1BB8CE"/>
<path d="M37.81 11.9707H35.01V40.4907L6.5 11.9707H0V56.1907H2.80002V14.7707H5.34L37.81 47.2507V11.9707Z" fill="#1BB8CE"/>
<path d="M41.4104 53.3907H38.8704L6.40039 20.9207V56.1907H9.20041V27.6807L37.7104 56.1907H44.2104V11.9707H41.4104V53.3907Z" fill="#1BB8CE"/>
<path d="M65.2411 36.1715L79.5611 21.8515L77.8711 20.7915C75.7785 19.4182 73.3681 18.6055 70.8711 18.4315V18.4315H70.2311C70.0311 18.4315 69.8211 18.4315 69.6211 18.4315C69.5279 18.4265 69.4344 18.4265 69.3411 18.4315H68.8311C68.4211 18.4315 68.0011 18.5015 67.5911 18.5615L67.0411 18.6515H66.8611L66.4411 18.7415L65.8711 18.8815L65.3011 19.0415L64.8211 19.1915C62.593 19.9582 60.5661 21.217 58.891 22.8743C57.216 24.5317 55.9357 26.545 55.1453 28.7649C54.3549 30.9848 54.0747 33.3542 54.3254 35.6972C54.5761 38.0402 55.3514 40.2967 56.5937 42.2991C57.8359 44.3014 59.5132 45.9983 61.5011 47.2636C63.4889 48.529 65.7362 49.3303 68.0762 49.6082C70.4162 49.8861 72.7886 49.6333 75.0175 48.8687C77.2464 48.1041 79.2745 46.8472 80.9511 45.1915C82.6091 43.5392 83.8749 41.5359 84.6555 39.3292C85.436 37.1225 85.7114 34.7687 85.4612 32.4415L82.7411 35.1615C82.5198 37.8948 81.4346 40.4868 79.6424 42.5624C77.8503 44.638 75.4443 46.0895 72.7724 46.707C70.1006 47.3245 67.3016 47.0758 64.7805 45.997C62.2594 44.9182 60.1469 43.0652 58.7487 40.7061C57.3506 38.3471 56.7393 35.6044 57.0033 32.8749C57.2673 30.1454 58.393 27.5707 60.2173 25.5233C62.0417 23.476 64.4701 22.0622 67.1513 21.4866C69.8324 20.911 72.6272 21.2034 75.1311 22.3215L63.2411 34.2115L65.2411 36.1715Z" fill="#1BB8CE"/>
<path d="M88.6005 29.2912C89.7635 33.8248 89.242 38.6265 87.1329 42.8048C85.0237 46.983 81.4703 50.2541 77.132 52.0109C72.7938 53.7676 67.9655 53.8907 63.5434 52.3571C59.1213 50.8236 55.4058 47.7377 53.0866 43.6723C50.7674 39.6068 50.0021 34.838 50.9326 30.251C51.8632 25.664 54.4265 21.5704 58.1466 18.7301C61.8667 15.8899 66.491 14.4958 71.1611 14.8068C75.8312 15.1178 80.2299 17.1127 83.5405 20.4212C83.7205 20.5912 83.8906 20.7712 84.0606 20.9612L84.8005 21.7012L67.8005 38.7012L69.8005 40.7012L88.8005 21.7012L85.5505 18.4512C81.7228 14.6174 76.6197 12.3238 71.2114 12.0067C65.8032 11.6895 60.4669 13.3708 56.2173 16.7309C51.9677 20.0911 49.101 24.8957 48.1623 30.2313C47.2236 35.5669 48.2784 41.0614 51.126 45.6702C53.9737 50.2789 58.4158 53.6805 63.6076 55.2282C68.7993 56.7759 74.3788 56.3617 79.2852 54.0645C84.1915 51.7672 88.0827 47.7471 90.2187 42.7684C92.3547 37.7897 92.5867 32.1997 90.8706 27.0612L88.6005 29.2912Z" fill="#1BB8CE"/>
<path d="M105.091 23.2007H95.1406V26.0007H107.891V11.9707H105.091V23.2007Z" fill="#1BB8CE"/>
<path d="M124.24 23.2007H114.29V11.9707H111.49V26.0007H124.24V23.2007Z" fill="#1BB8CE"/>
<path d="M95.1406 32.3996H105.091V56.1896H107.891V29.5996H95.1406V32.3996Z" fill="#1BB8CE"/>
<path d="M85.1211 12.1197C86.3221 12.1316 87.4996 11.7863 88.504 11.1277C89.5085 10.4691 90.2945 9.52687 90.7624 8.42065C91.2303 7.31443 91.3589 6.09412 91.1319 4.91467C90.9049 3.73522 90.3325 2.64983 89.4874 1.79631C88.6424 0.942791 87.5627 0.35964 86.3856 0.12091C85.2084 -0.117821 83.9869 -0.00136188 82.8761 0.455489C81.7653 0.91234 80.8153 1.68898 80.1467 2.6868C79.4782 3.68462 79.1212 4.85861 79.1211 6.05971C79.1236 7.65578 79.7547 9.18664 80.8776 10.3208C82.0006 11.455 83.5251 12.1013 85.1211 12.1197V12.1197ZM85.1211 2.80971C85.7667 2.80773 86.3984 2.9975 86.936 3.35495C87.4737 3.7124 87.893 4.22144 88.141 4.81753C88.389 5.41363 88.4544 6.06993 88.3289 6.70324C88.2034 7.33655 87.8927 7.91834 87.4362 8.37486C86.9797 8.83138 86.398 9.14207 85.7646 9.26754C85.1313 9.39301 84.475 9.32761 83.8789 9.07963C83.2828 8.83165 82.7738 8.41225 82.4163 7.87462C82.0589 7.33698 81.8691 6.70532 81.8711 6.05971C81.8737 5.19856 82.217 4.37345 82.8259 3.76453C83.4349 3.1556 84.26 2.81234 85.1211 2.80971Z" fill="#1BB8CE"/>
<path d="M18.7294 76.271C17.8095 76.4382 16.8816 76.5583 15.9494 76.631C15.0294 76.701 14.1395 76.7409 13.2895 76.7409H12.4395V67.7409H14.2595V75.2309C14.8495 75.2309 15.5095 75.1809 16.2595 75.1209C17.0095 75.0609 17.7194 74.9509 18.4494 74.8209L18.7294 76.271ZM17.0294 70.7809H19.3195V66.7809H21.0894V79.4609H19.3195V72.271H17.0294V70.7809ZM21.9395 80.1409V66.4609H23.7195V80.1409H21.9395Z" fill="#1BB8CE"/>
<path d="M39.0996 78.3311V76.8411H51.8096V78.3311H39.0996ZM40.6496 69.3311H50.2996V70.7811H46.5596C46.679 71.2246 46.8864 71.6395 47.1696 72.0011C47.4582 72.3502 47.7949 72.6566 48.1696 72.9111C48.5661 73.174 48.9924 73.3889 49.4396 73.5511C49.9066 73.7298 50.3885 73.8669 50.8796 73.9611L50.2896 75.3611C49.2908 75.1733 48.3329 74.8111 47.4596 74.2911C46.6354 73.8251 45.9463 73.1532 45.4596 72.3411C44.9719 73.1524 44.283 73.824 43.4596 74.2911C42.5848 74.8077 41.6274 75.1697 40.6296 75.3611L40.0396 73.9611C40.5307 73.8669 41.0125 73.7298 41.4796 73.5511C41.9262 73.3948 42.3499 73.1795 42.7396 72.9111C43.1143 72.6566 43.451 72.3502 43.7396 72.0011C44.0228 71.6395 44.2302 71.2246 44.3496 70.7811H40.5996L40.6496 69.3311ZM42.9996 67.1211H47.9396V68.5811H42.9996V67.1211Z" fill="#1BB8CE"/>
<path d="M74.4911 74.1702V76.8402H79.8712V78.3302H67.2012V76.8402H72.6711V74.1702H68.9612V67.4902H78.2012V74.1702H74.4911ZM76.3812 68.9702H70.7911V72.6902H76.3812V68.9702Z" fill="#1BB8CE"/>
<path d="M102.071 67.0609V73.2209H95.291V67.0609H97.101V68.7809H100.261V67.0609H102.071ZM97.071 80.0609V76.4209H104.521V75.7409H97.071V74.2809H106.331V77.8709H98.871V78.6109H106.521V80.0609H97.071ZM100.281 71.7209V70.271H97.121V71.7209H100.281ZM106.331 73.7209H104.521V66.4609H106.331V73.7209Z" fill="#1BB8CE"/>
<path d="M129.741 76.1409C128.597 76.4498 127.43 76.6639 126.251 76.7809C125.118 76.8998 123.98 76.9598 122.841 76.9609H121.941V71.4409H126.601V69.2509H121.871V67.7509H128.401V72.9409H123.721V75.4609C124.651 75.4484 125.58 75.3783 126.501 75.2509C127.475 75.1266 128.44 74.9429 129.391 74.7009L129.741 76.1409ZM132.961 80.0909H131.151V66.4609H132.961V80.0909Z" fill="#1BB8CE"/>
<path d="M156.14 76.1709C154.996 76.4766 153.829 76.6873 152.65 76.8009C151.49 76.9109 150.36 76.9609 149.24 76.9609H148.34V67.7509H155.14V69.2509H150.14V71.3609H154.95V72.8609H150.17V75.4609C152.079 75.4498 153.979 75.2081 155.83 74.7409L156.14 76.1709ZM159.35 80.0909H157.54V66.4609H159.35V80.0909Z" fill="#1BB8CE"/>
</svg>
